<svg width="58" height="76" viewBox="0 0 58 76" fill="none" xmlns="http://www.w3.org/2000/svg">
<path d="M56 2H50M2.5 2H9.5M50 2V24C50 28.5 44.6 37.5 29 37.5C13.4 37.5 9.5 28.5 9.5 24V2M50 2H9.5" stroke="#785040" stroke-width="4" stroke-linecap="round" stroke-linejoin="round"/>
<path d="M2.5 73.5L8.5 73.5M56 73.5L49 73.5M8.5 73.5L8.5 51.5C8.5 47 13.9 38 29.5 38C45.1 38 49 47 49 51.5L49 73.5M8.5 73.5L49 73.5" stroke="#785040" stroke-width="4" stroke-linecap="round" stroke-linejoin="round"/>
<path d="M16.5 65.5H41.5C41.5 54 44 46 28.5 46C14.0001 46 16.5 54 16.5 65.5Z" stroke="#785040" stroke-width="4" stroke-linecap="round" stroke-linejoin="round"/>
</svg>
