<svg width="86" height="86" viewBox="0 0 86 86" fill="none" xmlns="http://www.w3.org/2000/svg">
<path d="M63.4313 51.5H22.8316C22.2136 51.5 21.7443 52.0547 21.907 52.6508C23.6146 58.908 31.2497 69.5 43.6511 69.5C56.0122 69.5 62.6148 58.8307 64.3622 52.6842C64.5347 52.0772 64.0624 51.5 63.4313 51.5Z" stroke="#785040" stroke-width="4" stroke-linejoin="round"/>
<path d="M18.151 36C19.3884 37.6498 25.3891 43.0423 27.4525 44.88C27.8468 45.2312 28.4402 45.2107 28.8136 44.8373L37.651 36C39.651 34 39.651 31 38.151 28.5C36.6768 26.043 31.7163 25.5755 28.938 27.7412C28.4742 28.1028 27.7945 28.1357 27.3237 27.7834C24.3016 25.5228 19.9766 25.7617 18.151 28.5C16.582 30.8533 16.651 33.9999 18.151 36Z" stroke="#785040" stroke-width="4" stroke-linejoin="round"/>
<path d="M48.8495 36C50.0869 37.6498 56.0876 43.0423 58.151 44.88C58.5453 45.2312 59.1387 45.2107 59.5121 44.8373L68.3495 36C70.3495 34 70.3495 31 68.8495 28.5C67.3753 26.043 62.4148 25.5755 59.6365 27.7412C59.1727 28.1028 58.493 28.1357 58.0222 27.7834C55.0001 25.5228 50.675 25.7617 48.8495 28.5C47.2805 30.8533 47.3495 33.9999 48.8495 36Z" stroke="#785040" stroke-width="4" stroke-linejoin="round"/>
<circle cx="43" cy="43" r="41" stroke="#785040" stroke-width="4"/>
</svg>
