<svg width="104" height="104" viewBox="0 0 104 104" fill="none" xmlns="http://www.w3.org/2000/svg">
<path d="M21.6666 88.348H31.46C35.8366 88.348 40.2696 88.8073 44.5293 89.6827C52.1343 91.245 59.9593 91.4183 67.626 90.194C71.3873 89.5873 75.0793 88.6557 78.4246 87.0437C81.4406 85.5833 85.137 83.5337 87.62 81.2327C90.0986 78.936 92.6813 75.179 94.51 72.241C96.0873 69.719 95.3246 66.6293 92.8373 64.753C91.4396 63.7363 89.7557 63.1887 88.0273 63.1887C86.2989 63.1887 84.615 63.7363 83.2173 64.753L75.387 70.668C72.3536 72.9647 69.0386 75.075 65.091 75.7033C64.6143 75.777 64.116 75.8463 63.596 75.907M63.596 75.907C63.4372 75.9254 63.2783 75.9427 63.1193 75.959M63.596 75.907C64.2896 75.7194 64.9255 75.362 65.4463 74.867C66.0993 74.3021 66.6325 73.6121 67.0145 72.8378C67.3965 72.0635 67.6195 71.2205 67.6704 70.3585C67.7213 69.4966 67.599 68.6332 67.3108 67.8193C67.0226 67.0054 66.5743 66.2575 65.9923 65.6197C65.4276 64.9928 64.7699 64.4564 64.0423 64.0293C51.922 56.797 33.059 62.3047 21.6666 70.3863M63.596 75.907C63.4394 75.9411 63.2796 75.9585 63.1193 75.959M63.1193 75.959C60.5059 76.2216 57.8731 76.2275 55.2586 75.9763" stroke="#785040" stroke-width="4" stroke-linecap="round"/>
<path d="M21.6666 67.1667C21.6666 63.5769 18.7565 60.6667 15.1666 60.6667C11.5768 60.6667 8.66663 63.5769 8.66663 67.1667V88.8334C8.66663 92.4233 11.5768 95.3334 15.1666 95.3334C18.7565 95.3334 21.6666 92.4233 21.6666 88.8334V67.1667Z" stroke="#785040" stroke-width="4"/>
<path d="M38.5001 8.99997C45.7001 7.79997 49.0001 12 51.5001 14C54.0001 12 58.9166 8.57051 64.5001 8.99997C71.0001 9.49992 74.0001 16.1134 74.0001 18.9999C74.0001 21.9999 76.5001 28.9999 51.5001 42.4999C28.5 29.4999 30.5001 19.9999 30.5001 19.9999C30.5001 19.9999 29.5001 10.5 38.5001 8.99997Z" stroke="#785040" stroke-width="4" stroke-linecap="round" stroke-linejoin="round"/>
</svg>
